<svg id="Testimony" xmlns="http://www.w3.org/2000/svg" width="180" height="180" viewBox="0 0 180 180">
  <path id="Path_1" data-name="Path 1" d="M0,0H180V180H0Z" fill="none"/>
  <path id="Path_2" data-name="Path 2" d="M69.743,12.422V48.9H18.519l-6.1,6.1V12.422H69.743M74.954,2H7.211A5.226,5.226,0,0,0,2,7.211V80.165L22.844,59.321h52.11a5.226,5.226,0,0,0,5.211-5.211V7.211A5.226,5.226,0,0,0,74.954,2Zm26.055,20.844H90.587v46.9H22.844V80.165a5.226,5.226,0,0,0,5.211,5.211H85.376L106.22,106.22V28.055A5.226,5.226,0,0,0,101.009,22.844Z" transform="translate(36 36)" fill="#fff"/>
</svg>
